<mxfile host="65bd71144e">
    <diagram id="p9u8WvjXrxl4Lc6jzX-Q" name="Page-1">
        <mxGraphModel dx="646" dy="423" grid="1" gridSize="10" guides="1" tooltips="1" connect="1" arrows="1" fold="1" page="1" pageScale="1" pageWidth="850" pageHeight="1100" math="0" shadow="0">
            <root>
                <mxCell id="0"/>
                <mxCell id="1" parent="0"/>
                <mxCell id="15" style="edgeStyle=none;html=1;entryX=0.5;entryY=0;entryDx=0;entryDy=0;strokeColor=#F0183C;" edge="1" parent="1" source="3" target="5">
                    <mxGeometry relative="1" as="geometry"/>
                </mxCell>
                <mxCell id="3" value="挂载应用实例前使用路由插件app.use(router)" style="rounded=0;whiteSpace=wrap;html=1;" parent="1" vertex="1">
                    <mxGeometry x="100" y="130" width="120" height="60" as="geometry"/>
                </mxCell>
                <mxCell id="5" value="createRouter方法传入对象参数&lt;br&gt;createWebHashHistory 和routes" style="rounded=0;whiteSpace=wrap;html=1;" vertex="1" parent="1">
                    <mxGeometry x="100" y="260" width="120" height="60" as="geometry"/>
                </mxCell>
                <mxCell id="7" value="createWebHashHistory包含给hashchang绑定事件的方法 bindEvents和表示当前hash地址的url" style="rounded=0;whiteSpace=wrap;html=1;" vertex="1" parent="1">
                    <mxGeometry x="320" y="200" width="120" height="80" as="geometry"/>
                </mxCell>
                <mxCell id="8" value="routes 是包含多个 path,name,component 的对象数组" style="rounded=0;whiteSpace=wrap;html=1;" vertex="1" parent="1">
                    <mxGeometry x="320" y="320" width="120" height="60" as="geometry"/>
                </mxCell>
                <mxCell id="9" value="createRouter 方法可以通过new Router创建实例对象" style="rounded=0;whiteSpace=wrap;html=1;" vertex="1" parent="1">
                    <mxGeometry x="100" y="390" width="120" height="60" as="geometry"/>
                </mxCell>
                <mxCell id="10" value="Router类中的&lt;br&gt;history变量包括url和 bindEvents，另外有 routes 变量，install 方法可以提供provide 方法，也可以全局注入两个component" style="rounded=0;whiteSpace=wrap;html=1;" vertex="1" parent="1">
                    <mxGeometry x="100" y="520" width="120" height="120" as="geometry"/>
                </mxCell>
                <mxCell id="11" value="RouterLink 组件是可以跳转指定hash地址的a标签" style="rounded=0;whiteSpace=wrap;html=1;" vertex="1" parent="1">
                    <mxGeometry x="320" y="480" width="120" height="60" as="geometry"/>
                </mxCell>
                <mxCell id="12" value="RouterView组件&lt;br&gt;1. useRouter方法注入router对象&lt;br&gt;2. 根据当前hash地址去routes中找到对应的组件&amp;nbsp;" style="rounded=0;whiteSpace=wrap;html=1;" vertex="1" parent="1">
                    <mxGeometry x="320" y="590" width="120" height="90" as="geometry"/>
                </mxCell>
                <mxCell id="14" value="直接使用 RouterLink 和 RouterView 即可" style="rounded=0;whiteSpace=wrap;html=1;" vertex="1" parent="1">
                    <mxGeometry x="100" y="710" width="120" height="60" as="geometry"/>
                </mxCell>
                <mxCell id="17" style="edgeStyle=none;html=1;entryX=0.5;entryY=0;entryDx=0;entryDy=0;strokeColor=#F0183C;exitX=0.5;exitY=1;exitDx=0;exitDy=0;" edge="1" parent="1" source="5" target="9">
                    <mxGeometry relative="1" as="geometry">
                        <mxPoint x="180" y="210" as="sourcePoint"/>
                        <mxPoint x="180" y="280" as="targetPoint"/>
                    </mxGeometry>
                </mxCell>
                <mxCell id="18" style="edgeStyle=none;html=1;entryX=0;entryY=0.5;entryDx=0;entryDy=0;strokeColor=#F0183C;exitX=1;exitY=0.25;exitDx=0;exitDy=0;" edge="1" parent="1" source="5" target="7">
                    <mxGeometry relative="1" as="geometry">
                        <mxPoint x="190" y="220" as="sourcePoint"/>
                        <mxPoint x="190" y="290" as="targetPoint"/>
                    </mxGeometry>
                </mxCell>
                <mxCell id="19" style="edgeStyle=none;html=1;entryX=0;entryY=0.5;entryDx=0;entryDy=0;strokeColor=#F0183C;exitX=1;exitY=0.75;exitDx=0;exitDy=0;" edge="1" parent="1" source="5" target="8">
                    <mxGeometry relative="1" as="geometry">
                        <mxPoint x="200" y="230" as="sourcePoint"/>
                        <mxPoint x="200" y="300" as="targetPoint"/>
                    </mxGeometry>
                </mxCell>
                <mxCell id="20" style="edgeStyle=none;html=1;strokeColor=#F0183C;exitX=0.5;exitY=1;exitDx=0;exitDy=0;entryX=0.5;entryY=0;entryDx=0;entryDy=0;" edge="1" parent="1" source="9" target="10">
                    <mxGeometry relative="1" as="geometry">
                        <mxPoint x="210" y="240" as="sourcePoint"/>
                        <mxPoint x="160" y="510" as="targetPoint"/>
                    </mxGeometry>
                </mxCell>
                <mxCell id="21" style="edgeStyle=none;html=1;strokeColor=#F0183C;entryX=0.5;entryY=0;entryDx=0;entryDy=0;exitX=0.5;exitY=1;exitDx=0;exitDy=0;" edge="1" parent="1" source="10" target="14">
                    <mxGeometry relative="1" as="geometry">
                        <mxPoint x="260" y="460" as="sourcePoint"/>
                        <mxPoint x="240" y="550" as="targetPoint"/>
                    </mxGeometry>
                </mxCell>
                <mxCell id="22" style="edgeStyle=none;html=1;strokeColor=#F0183C;exitX=1;exitY=0.25;exitDx=0;exitDy=0;entryX=0;entryY=0.5;entryDx=0;entryDy=0;" edge="1" parent="1" source="10" target="11">
                    <mxGeometry relative="1" as="geometry">
                        <mxPoint x="170" y="460" as="sourcePoint"/>
                        <mxPoint x="170" y="530" as="targetPoint"/>
                    </mxGeometry>
                </mxCell>
                <mxCell id="23" style="edgeStyle=none;html=1;strokeColor=#F0183C;exitX=1;exitY=0.75;exitDx=0;exitDy=0;entryX=0;entryY=0.5;entryDx=0;entryDy=0;" edge="1" parent="1" source="10" target="12">
                    <mxGeometry relative="1" as="geometry">
                        <mxPoint x="230" y="560" as="sourcePoint"/>
                        <mxPoint x="330" y="520" as="targetPoint"/>
                    </mxGeometry>
                </mxCell>
            </root>
        </mxGraphModel>
    </diagram>
</mxfile>